<svg xmlns="http://www.w3.org/2000/svg" xmlns:xlink="http://www.w3.org/1999/xlink" contentStyleType="text/css" height="632px" preserveAspectRatio="none" style="width:401px;height:632px;background:#FFFFFF;" version="1.1" viewBox="0 0 401 632" width="401px" zoomAndPan="magnify"><defs/><g><!--cluster App--><g id="cluster_App"><rect fill="none" height="113.29" rx="2.5" ry="2.5" style="stroke:#181818;stroke-width:1.0;" width="255" x="138" y="81.45"/><text fill="#000000" font-family="sans-serif" font-size="14" font-weight="bold" lengthAdjust="spacing" textLength="239" x="146" y="96.4451">Hologram Wallet &amp; Messenger</text></g><!--cluster Hologram Gov ID Issuer VS--><g id="cluster_Hologram Gov ID Issuer VS"><rect fill="none" height="309.89" rx="2.5" ry="2.5" style="stroke:#181818;stroke-width:1.0;" width="371" x="24" y="317.04"/><text fill="#000000" font-family="sans-serif" font-size="14" font-weight="bold" lengthAdjust="spacing" textLength="211" x="104" y="332.0351">Hologram Gov ID Issuer VS</text></g><!--entity MA--><g id="elem_MA"><rect fill="#F1F1F1" height="46.2969" rx="2.5" ry="2.5" style="stroke:#181818;stroke-width:0.5;" width="136" x="162" y="124.45"/><rect fill="#F1F1F1" height="10" style="stroke:#181818;stroke-width:0.5;" width="15" x="278" y="129.45"/><rect fill="#F1F1F1" height="2" style="stroke:#181818;stroke-width:0.5;" width="4" x="276" y="131.45"/><rect fill="#F1F1F1" height="2" style="stroke:#181818;stroke-width:0.5;" width="4" x="276" y="135.45"/><text fill="#000000" font-family="sans-serif" font-size="14" lengthAdjust="spacing" textLength="96" x="177" y="157.4451">Hologram app</text></g><!--entity VS--><g id="elem_VS"><rect fill="#F1F1F1" height="46.2969" rx="2.5" ry="2.5" style="stroke:#181818;stroke-width:0.5;" width="103" x="40.5" y="352.04"/><rect fill="#F1F1F1" height="10" style="stroke:#181818;stroke-width:0.5;" width="15" x="123.5" y="357.04"/><rect fill="#F1F1F1" height="2" style="stroke:#181818;stroke-width:0.5;" width="4" x="121.5" y="359.04"/><rect fill="#F1F1F1" height="2" style="stroke:#181818;stroke-width:0.5;" width="4" x="121.5" y="363.04"/><text fill="#000000" font-family="sans-serif" font-size="14" lengthAdjust="spacing" textLength="63" x="55.5" y="385.0351">VS Agent</text></g><!--entity WebRTC--><g id="elem_WebRTC"><rect fill="#F1F1F1" height="46.2969" rx="2.5" ry="2.5" style="stroke:#181818;stroke-width:0.5;" width="148" x="231" y="458.34"/><rect fill="#F1F1F1" height="10" style="stroke:#181818;stroke-width:0.5;" width="15" x="359" y="463.34"/><rect fill="#F1F1F1" height="2" style="stroke:#181818;stroke-width:0.5;" width="4" x="357" y="465.34"/><rect fill="#F1F1F1" height="2" style="stroke:#181818;stroke-width:0.5;" width="4" x="357" y="469.34"/><text fill="#000000" font-family="sans-serif" font-size="14" lengthAdjust="spacing" textLength="108" x="246" y="491.3351">WebRTC Server</text></g><!--entity PS--><g id="elem_PS"><path d="M40,468.84 C40,458.84 81,458.84 81,458.84 C81,458.84 122,458.84 122,468.84 L122,494.1369 C122,504.1369 81,504.1369 81,504.1369 C81,504.1369 40,504.1369 40,494.1369 L40,468.84 " fill="#F1F1F1" style="stroke:#181818;stroke-width:0.5;"/><path d="M40,468.84 C40,478.84 81,478.84 81,478.84 C81,478.84 122,478.84 122,468.84 " fill="none" style="stroke:#181818;stroke-width:0.5;"/><text fill="#000000" font-family="sans-serif" font-size="14" lengthAdjust="spacing" textLength="62" x="50" y="495.8351">Postgres</text></g><!--entity GAIA--><g id="elem_GAIA"><rect fill="#F1F1F1" height="46.2969" rx="2.5" ry="2.5" style="stroke:#181818;stroke-width:0.5;" width="317" x="40.5" y="564.63"/><rect fill="#F1F1F1" height="10" style="stroke:#181818;stroke-width:0.5;" width="15" x="337.5" y="569.63"/><rect fill="#F1F1F1" height="2" style="stroke:#181818;stroke-width:0.5;" width="4" x="335.5" y="571.63"/><rect fill="#F1F1F1" height="2" style="stroke:#181818;stroke-width:0.5;" width="4" x="335.5" y="575.63"/><text fill="#000000" font-family="sans-serif" font-size="14" lengthAdjust="spacing" textLength="201" x="55.5" y="597.6251">Hologram Gov ID Issuer App (</text><text fill="#000000" font-family="sans-serif" font-size="14" font-weight="bold" lengthAdjust="spacing" textLength="71" x="256.5" y="597.6251">this repo</text><text fill="#000000" font-family="sans-serif" font-size="14" lengthAdjust="spacing" textLength="5" x="327.5" y="597.6251">)</text></g><!--entity VISION--><g id="elem_VISION"><rect fill="#F1F1F1" height="46.2969" rx="2.5" ry="2.5" style="stroke:#181818;stroke-width:0.5;" width="143" x="178.5" y="352.04"/><rect fill="#F1F1F1" height="10" style="stroke:#181818;stroke-width:0.5;" width="15" x="301.5" y="357.04"/><rect fill="#F1F1F1" height="2" style="stroke:#181818;stroke-width:0.5;" width="4" x="299.5" y="359.04"/><rect fill="#F1F1F1" height="2" style="stroke:#181818;stroke-width:0.5;" width="4" x="299.5" y="363.04"/><text fill="#000000" font-family="sans-serif" font-size="14" lengthAdjust="spacing" textLength="103" x="193.5" y="385.0351">Vision Services</text></g><!--entity Enduser--><g id="elem_Enduser"><ellipse cx="82" cy="117.95" fill="#F1F1F1" rx="8" ry="8" style="stroke:#181818;stroke-width:0.5;"/><path d="M82,125.95 L82,152.95 M69,133.95 L95,133.95 M82,152.95 L69,167.95 M82,152.95 L95,167.95 " fill="none" style="stroke:#181818;stroke-width:0.5;"/><text fill="#000000" font-family="sans-serif" font-size="14" lengthAdjust="spacing" textLength="63" x="50.5" y="182.4451">End-user</text></g><!--entity CA--><g id="elem_CA"><rect fill="#F1F1F1" height="46.2969" rx="2.5" ry="2.5" style="stroke:#181818;stroke-width:0.5;" width="170" x="7" y="245.74"/><rect fill="#F1F1F1" height="10" style="stroke:#181818;stroke-width:0.5;" width="15" x="157" y="250.74"/><rect fill="#F1F1F1" height="2" style="stroke:#181818;stroke-width:0.5;" width="4" x="155" y="252.74"/><rect fill="#F1F1F1" height="2" style="stroke:#181818;stroke-width:0.5;" width="4" x="155" y="256.74"/><text fill="#000000" font-family="sans-serif" font-size="14" lengthAdjust="spacing" textLength="130" x="22" y="278.7351">Hologram Mediator</text></g><!--link Enduser to App--><g id="link_Enduser_App"><path d="M101.1422,103.7433 C114.5022,77.7433 133.37,50.8 163.5,35.45 C216.17,8.61 245.24,6 296.5,35.45 C307.33,41.67 315.0712,51.2931 320.5808,62.3444 C323.3355,67.87 325.5324,73.7527 327.2784,79.7455 C327.3875,80.12 327.4949,80.495 327.6005,80.8704 C327.6534,81.058 326.1064,75.4629 326.1584,75.6507 " fill="none" id="Enduser-App" style="stroke:#181818;stroke-width:1.0;"/><polygon fill="#181818" points="98.4,109.08,106.0711,102.9031,100.6852,104.6328,98.9556,99.2468,98.4,109.08" style="stroke:#181818;stroke-width:1.0;"/><polygon fill="#181818" points="327.7577,81.4336,329.214,71.6931,326.4249,76.6145,321.5035,73.8255,327.7577,81.4336" style="stroke:#181818;stroke-width:1.0;"/></g><!--link MA to VS--><g id="link_MA_VS"><path d="M229.89,171.23 C228.6,201.8 222.16,256.53 194,292.04 C183.75,304.97 174.46,299.5 161,309.04 C143.39,321.51 129.9145,333.98 116.8745,347.38 " fill="none" id="MA-to-VS" style="stroke:#181818;stroke-width:1.0;"/><polygon fill="#181818" points="112.69,351.68,121.8334,348.0196,116.1771,348.0967,116.1001,342.4403,112.69,351.68" style="stroke:#181818;stroke-width:1.0;"/></g><!--reverse link MA to CA--><g id="link_MA_CA"><path d="M199.5013,174.9543 C174.8313,196.2843 142.47,224.26 117.84,245.55 " fill="none" id="MA-backto-CA" style="stroke:#181818;stroke-width:1.0;"/><polygon fill="#181818" points="204.04,171.03,194.6157,173.8906,200.2577,174.3002,199.8481,179.9422,204.04,171.03" style="stroke:#181818;stroke-width:1.0;"/></g><!--reverse link CA to VS--><g id="link_CA_VS"><path d="M92,298.52 C92,316.02 92,334.12 92,351.6 " fill="none" id="CA-backto-VS" style="stroke:#181818;stroke-width:1.0;"/><polygon fill="#181818" points="92,292.52,88,301.52,92,297.52,96,301.52,92,292.52" style="stroke:#181818;stroke-width:1.0;"/></g><!--link MA to WebRTC--><g id="link_MA_WebRTC"><path d="M252.01,171.2 C278.62,200.28 321.97,253.68 339,309.04 C350.67,346.97 346.74,359.41 339,398.34 C334.82,419.38 327.8105,436.4121 319.8505,452.5021 " fill="none" id="MA-to-WebRTC" style="stroke:#181818;stroke-width:1.0;"/><polygon fill="#181818" points="317.19,457.88,324.766,451.5869,319.4071,453.3984,317.5955,448.0395,317.19,457.88" style="stroke:#181818;stroke-width:1.0;"/></g><!--link VISION to GAIA--><g id="link_VISION_GAIA"><path d="M234.7042,404.1597 C226.3742,420.2697 218.71,437.36 213,458.34 C203.1,494.7 200.3543,532.6531 199.5143,558.5731 " fill="none" id="VISION-GAIA" style="stroke:#181818;stroke-width:1.0;"/><polygon fill="#181818" points="237.46,398.83,229.7732,404.9873,235.1635,403.2714,236.8794,408.6617,237.46,398.83" style="stroke:#181818;stroke-width:1.0;"/><polygon fill="#181818" points="199.32,564.57,203.6094,555.7043,199.482,559.5726,195.6136,555.4452,199.32,564.57" style="stroke:#181818;stroke-width:1.0;"/></g><!--link VISION to WebRTC--><g id="link_VISION_WebRTC"><path d="M264.7304,404.1264 C273.9604,421.6164 281.0708,435.113 290.2908,452.593 " fill="none" id="VISION-WebRTC" style="stroke:#181818;stroke-width:1.0;"/><polygon fill="#181818" points="261.93,398.82,262.5929,408.6465,264.2636,403.242,269.6681,404.9127,261.93,398.82" style="stroke:#181818;stroke-width:1.0;"/><polygon fill="#181818" points="293.09,457.9,292.4292,448.0733,290.7573,453.4775,285.3531,451.8056,293.09,457.9" style="stroke:#181818;stroke-width:1.0;"/></g><!--link WebRTC to GAIA--><g id="link_WebRTC_GAIA"><path d="M277.7226,509.3276 C259.9426,526.8176 243.9962,542.5012 226.2362,559.9812 " fill="none" id="WebRTC-GAIA" style="stroke:#181818;stroke-width:1.0;"/><polygon fill="#181818" points="282,505.12,272.7789,508.5798,278.4355,508.6263,278.389,514.283,282,505.12" style="stroke:#181818;stroke-width:1.0;"/><polygon fill="#181818" points="221.96,564.19,231.1802,560.7276,225.5235,560.6827,225.5685,555.026,221.96,564.19" style="stroke:#181818;stroke-width:1.0;"/></g><!--link VS to GAIA--><g id="link_VS_GAIA"><path d="M108.9674,403.6466 C118.8974,419.9766 129.25,437.67 140,458.34 C158.91,494.69 175.8857,532.7698 187.0457,558.6698 " fill="none" id="VS-GAIA" style="stroke:#181818;stroke-width:1.0;"/><polygon fill="#181818" points="105.85,398.52,107.1084,408.2881,108.4478,402.7922,113.9438,404.1316,105.85,398.52" style="stroke:#181818;stroke-width:1.0;"/><polygon fill="#181818" points="189.42,564.18,189.532,554.3318,187.4414,559.5881,182.1851,557.4975,189.42,564.18" style="stroke:#181818;stroke-width:1.0;"/></g><!--link VS to PS--><g id="link_VS_PS"><path d="M88.9807,404.7869 C87.1107,422.5169 85.7897,435.1131 83.9397,452.6431 " fill="none" id="VS-PS" style="stroke:#181818;stroke-width:1.0;"/><polygon fill="#181818" points="89.61,398.82,84.6881,407.3508,89.0856,403.7924,92.6439,408.1899,89.61,398.82" style="stroke:#181818;stroke-width:1.0;"/><polygon fill="#181818" points="83.31,458.61,88.2325,450.0795,83.8348,453.6376,80.2766,449.2399,83.31,458.61" style="stroke:#181818;stroke-width:1.0;"/></g><!--link PS to GAIA--><g id="link_PS_GAIA"><path d="M110.5157,508.5735 C130.4057,526.1535 149.1255,542.6951 169.1055,560.3651 " fill="none" id="PS-GAIA" style="stroke:#181818;stroke-width:1.0;"/><polygon fill="#181818" points="106.02,504.6,110.1145,513.5574,109.7664,507.9113,115.4125,507.5632,106.02,504.6" style="stroke:#181818;stroke-width:1.0;"/><polygon fill="#181818" points="173.6,564.34,169.5082,555.3814,169.8546,561.0276,164.2084,561.374,173.6,564.34" style="stroke:#181818;stroke-width:1.0;"/></g><!--SRC=[TL3BReCm4BpxArOSeXQ9FuWYMRHAE92YkYA7AWS7LXI9OkHrSgdwBtmBNrQ_r798RxipuvbPoyOelSp9yzXcLqATBBEaPRQhsnXxFwX1TLf-GebjBwtu398WvunfR8mSkm4X-HMTv32WWOrL4-7OMKCdvzC4NmpWpqrEqpb4bPnzi_jkUtM3uWaAeYjgg4NYJQnDBO1tE9feKOi0d_3o-fQ3G7r3xJa8aATRQUH54aAbo7GQoJMhujD_CbtnXpGr7ps1nacbwQE_VyyB7glqrAlHP_ODacVhGXGlHtTM_4VOPZldnKeEcHrjOJjjiynzP1wcW3asTWukZjk5l3KGDV7YbKRSMUoHrGh_0G00]--></g></svg>