<svg xmlns="http://www.w3.org/2000/svg" xmlns:xlink="http://www.w3.org/1999/xlink" contentStyleType="text/css" height="678px" preserveAspectRatio="none" style="width:538px;height:678px;background:#FFFFFF;" version="1.1" viewBox="0 0 538 678" width="538px" zoomAndPan="magnify"><defs/><g><!--cluster App--><g id="cluster_App"><rect fill="none" height="113.3" rx="2.5" ry="2.5" style="stroke:#181818;stroke-width:1.0;" width="255" x="60.5" y="7"/><text fill="#000000" font-family="sans-serif" font-size="14" font-weight="bold" lengthAdjust="spacing" textLength="239" x="68.5" y="21.9951">Hologram Wallet &amp; Messenger</text></g><!--cluster UnicID Issuer DTS--><g id="cluster_UnicID Issuer DTS"><rect fill="none" height="415.19" rx="2.5" ry="2.5" style="stroke:#181818;stroke-width:1.0;" width="448" x="84.5" y="257.59"/><text fill="#000000" font-family="sans-serif" font-size="14" font-weight="bold" lengthAdjust="spacing" textLength="139" x="239" y="272.5851">UnicID Issuer DTS</text></g><!--entity MA--><g id="elem_MA"><rect fill="#F1F1F1" height="46.2969" rx="2.5" ry="2.5" style="stroke:#181818;stroke-width:0.5;" width="136" x="155.5" y="50"/><rect fill="#F1F1F1" height="10" style="stroke:#181818;stroke-width:0.5;" width="15" x="271.5" y="55"/><rect fill="#F1F1F1" height="2" style="stroke:#181818;stroke-width:0.5;" width="4" x="269.5" y="57"/><rect fill="#F1F1F1" height="2" style="stroke:#181818;stroke-width:0.5;" width="4" x="269.5" y="61"/><text fill="#000000" font-family="sans-serif" font-size="14" lengthAdjust="spacing" textLength="96" x="170.5" y="82.9951">Hologram app</text></g><!--entity VS--><g id="elem_VS"><rect fill="#F1F1F1" height="46.2969" rx="2.5" ry="2.5" style="stroke:#181818;stroke-width:0.5;" width="175" x="101" y="292.59"/><rect fill="#F1F1F1" height="10" style="stroke:#181818;stroke-width:0.5;" width="15" x="256" y="297.59"/><rect fill="#F1F1F1" height="2" style="stroke:#181818;stroke-width:0.5;" width="4" x="254" y="299.59"/><rect fill="#F1F1F1" height="2" style="stroke:#181818;stroke-width:0.5;" width="4" x="254" y="303.59"/><text fill="#000000" font-family="sans-serif" font-size="14" lengthAdjust="spacing" textLength="135" x="116" y="325.5851">2060 Service Agent</text></g><!--entity DS--><g id="elem_DS"><path d="M277,621.48 C277,611.48 343.5,611.48 343.5,611.48 C343.5,611.48 410,611.48 410,621.48 L410,646.7769 C410,656.7769 343.5,656.7769 343.5,656.7769 C343.5,656.7769 277,656.7769 277,646.7769 L277,621.48 " fill="#F1F1F1" style="stroke:#181818;stroke-width:0.5;"/><path d="M277,621.48 C277,631.48 343.5,631.48 343.5,631.48 C343.5,631.48 410,631.48 410,621.48 " fill="none" style="stroke:#181818;stroke-width:0.5;"/><text fill="#000000" font-family="sans-serif" font-size="14" lengthAdjust="spacing" textLength="113" x="287" y="648.4751">2060 Data Store</text></g><!--entity WebRTC--><g id="elem_WebRTC"><rect fill="#F1F1F1" height="46.2969" rx="2.5" ry="2.5" style="stroke:#181818;stroke-width:0.5;" width="188" x="328.5" y="398.89"/><rect fill="#F1F1F1" height="10" style="stroke:#181818;stroke-width:0.5;" width="15" x="496.5" y="403.89"/><rect fill="#F1F1F1" height="2" style="stroke:#181818;stroke-width:0.5;" width="4" x="494.5" y="405.89"/><rect fill="#F1F1F1" height="2" style="stroke:#181818;stroke-width:0.5;" width="4" x="494.5" y="409.89"/><text fill="#000000" font-family="sans-serif" font-size="14" lengthAdjust="spacing" textLength="148" x="343.5" y="431.8851">2060 WebRTC Server</text></g><!--entity PS--><g id="elem_PS"><path d="M137.5,409.39 C137.5,399.39 178.5,399.39 178.5,399.39 C178.5,399.39 219.5,399.39 219.5,409.39 L219.5,434.6869 C219.5,444.6869 178.5,444.6869 178.5,444.6869 C178.5,444.6869 137.5,444.6869 137.5,434.6869 L137.5,409.39 " fill="#F1F1F1" style="stroke:#181818;stroke-width:0.5;"/><path d="M137.5,409.39 C137.5,419.39 178.5,419.39 178.5,419.39 C178.5,419.39 219.5,419.39 219.5,409.39 " fill="none" style="stroke:#181818;stroke-width:0.5;"/><text fill="#000000" font-family="sans-serif" font-size="14" lengthAdjust="spacing" textLength="62" x="147.5" y="436.3851">Postgres</text></g><!--entity GAIA--><g id="elem_GAIA"><rect fill="#F1F1F1" height="46.2969" rx="2.5" ry="2.5" style="stroke:#181818;stroke-width:0.5;" width="299" x="101" y="505.19"/><rect fill="#F1F1F1" height="10" style="stroke:#181818;stroke-width:0.5;" width="15" x="380" y="510.19"/><rect fill="#F1F1F1" height="2" style="stroke:#181818;stroke-width:0.5;" width="4" x="378" y="512.19"/><rect fill="#F1F1F1" height="2" style="stroke:#181818;stroke-width:0.5;" width="4" x="378" y="516.19"/><text fill="#000000" font-family="sans-serif" font-size="14" lengthAdjust="spacing" textLength="164" x="116" y="538.1851">UnicID Issuer Backend (</text><text fill="#000000" font-family="sans-serif" font-size="14" font-weight="bold" lengthAdjust="spacing" textLength="90" x="280" y="538.1851">this project</text><text fill="#000000" font-family="sans-serif" font-size="14" lengthAdjust="spacing" textLength="5" x="370" y="538.1851">)</text></g><!--entity VISION--><g id="elem_VISION"><rect fill="#F1F1F1" height="46.2969" rx="2.5" ry="2.5" style="stroke:#181818;stroke-width:0.5;" width="143" x="311" y="292.59"/><rect fill="#F1F1F1" height="10" style="stroke:#181818;stroke-width:0.5;" width="15" x="434" y="297.59"/><rect fill="#F1F1F1" height="2" style="stroke:#181818;stroke-width:0.5;" width="4" x="432" y="299.59"/><rect fill="#F1F1F1" height="2" style="stroke:#181818;stroke-width:0.5;" width="4" x="432" y="303.59"/><text fill="#000000" font-family="sans-serif" font-size="14" lengthAdjust="spacing" textLength="103" x="326" y="325.5851">Vision Services</text></g><!--entity Enduser--><g id="elem_Enduser"><ellipse cx="37.5" cy="164.8" fill="#F1F1F1" rx="8" ry="8" style="stroke:#181818;stroke-width:0.5;"/><path d="M37.5,172.8 L37.5,199.8 M24.5,180.8 L50.5,180.8 M37.5,199.8 L24.5,214.8 M37.5,199.8 L50.5,214.8 " fill="none" style="stroke:#181818;stroke-width:0.5;"/><text fill="#000000" font-family="sans-serif" font-size="14" lengthAdjust="spacing" textLength="63" x="6" y="229.2951">End-user</text></g><!--entity CA--><g id="elem_CA"><rect fill="#F1F1F1" height="46.2969" rx="2.5" ry="2.5" style="stroke:#181818;stroke-width:0.5;" width="170" x="103.5" y="171.3"/><rect fill="#F1F1F1" height="10" style="stroke:#181818;stroke-width:0.5;" width="15" x="253.5" y="176.3"/><rect fill="#F1F1F1" height="2" style="stroke:#181818;stroke-width:0.5;" width="4" x="251.5" y="178.3"/><rect fill="#F1F1F1" height="2" style="stroke:#181818;stroke-width:0.5;" width="4" x="251.5" y="182.3"/><text fill="#000000" font-family="sans-serif" font-size="14" lengthAdjust="spacing" textLength="130" x="118.5" y="204.2951">Hologram Mediator</text></g><!--link App to Enduser--><g id="link_App_Enduser"><path d="M58.9574,110.8728 C58.8913,111.1269 60.2349,105.9553 60.1685,106.2112 C59.9025,107.2348 59.633,108.2723 59.3602,109.322 C58.8148,111.4215 58.2566,113.5699 57.6892,115.7539 C56.5543,120.122 55.3823,124.6326 54.2009,129.1792 C51.8381,138.2725 50.9471,141.703 48.7296,150.233 " fill="none" id="App-Enduser" style="stroke:#181818;stroke-width:1.0;"/><polygon fill="#181818" points="60.4661,105.0656,54.3315,112.7706,59.2088,109.9049,62.0745,114.7822,60.4661,105.0656" style="stroke:#181818;stroke-width:1.0;"/><polygon fill="#181818" points="47.22,156.04,53.3557,148.3359,48.478,151.2008,45.6131,146.3231,47.22,156.04" style="stroke:#181818;stroke-width:1.0;"/></g><!--link MA to VS--><g id="link_MA_VS"><path d="M249.01,96.51 C264.26,111.64 282.23,133.06 290.5,156.3 C301.88,188.24 305.14,202.01 290.5,232.59 C278.28,258.13 258.8816,275.0281 236.9816,288.9681 " fill="none" id="MA-to-VS" style="stroke:#181818;stroke-width:1.0;"/><polygon fill="#181818" points="231.92,292.19,241.6603,290.7316,236.138,289.5051,237.3645,283.9828,231.92,292.19" style="stroke:#181818;stroke-width:1.0;"/></g><!--reverse link MA to CA--><g id="link_MA_CA"><path d="M215.2296,102.347 C208.9696,123.667 201.3,149.81 195.05,171.11 " fill="none" id="MA-backto-CA" style="stroke:#181818;stroke-width:1.0;"/><polygon fill="#181818" points="216.92,96.59,210.5465,104.0985,215.5114,101.3875,218.2224,106.3524,216.92,96.59" style="stroke:#181818;stroke-width:1.0;"/></g><!--reverse link CA to VS--><g id="link_CA_VS"><path d="M188.5,223.88 C188.5,245.21 188.5,271.11 188.5,292.4 " fill="none" id="CA-backto-VS" style="stroke:#181818;stroke-width:1.0;"/><polygon fill="#181818" points="188.5,217.88,184.5,226.88,188.5,222.88,192.5,226.88,188.5,217.88" style="stroke:#181818;stroke-width:1.0;"/></g><!--link MA to WebRTC--><g id="link_MA_WebRTC"><path d="M282.54,96.68 C342.53,123.15 432.05,173.36 471.5,249.59 C489.74,284.84 482.04,300.63 471.5,338.89 C465.46,360.82 455.3652,377.9476 444.0152,393.6476 " fill="none" id="MA-to-WebRTC" style="stroke:#181818;stroke-width:1.0;"/><polygon fill="#181818" points="440.5,398.51,449.0144,393.5598,443.4293,394.458,442.5312,388.8729,440.5,398.51" style="stroke:#181818;stroke-width:1.0;"/></g><!--link VISION to GAIA--><g id="link_VISION_GAIA"><path d="M340.0314,342.7774 C319.0014,357.2874 298.92,374.55 283.5,398.89 C262.55,431.95 255.4858,471.7717 252.6958,498.8117 " fill="none" id="VISION-GAIA" style="stroke:#181818;stroke-width:1.0;"/><polygon fill="#181818" points="344.97,339.37,335.2905,341.1888,340.8545,342.2095,339.8338,347.7735,344.97,339.37" style="stroke:#181818;stroke-width:1.0;"/><polygon fill="#181818" points="252.08,504.78,256.9826,496.2381,252.5932,499.8064,249.0248,495.417,252.08,504.78" style="stroke:#181818;stroke-width:1.0;"/></g><!--link VISION to DS--><g id="link_VISION_DS"><path d="M354.95,339.19 C326.81,364.97 290.07,408.43 311.5,445.19 C338.77,491.95 390.23,458.42 417.5,505.19 C427.86,522.96 424.91,532.29 417.5,551.48 C408.34,575.22 393.2238,592.3543 376.4838,607.1643 " fill="none" id="VISION-to-DS" style="stroke:#181818;stroke-width:1.0;"/><polygon fill="#181818" points="371.99,611.14,381.3811,608.1723,375.7348,607.8269,376.0802,602.1806,371.99,611.14" style="stroke:#181818;stroke-width:1.0;"/></g><!--link VISION to WebRTC--><g id="link_VISION_WebRTC"><path d="M393.3281,344.9723 C400.0381,362.4723 404.9798,375.3685 411.6898,392.8485 " fill="none" id="VISION-WebRTC" style="stroke:#181818;stroke-width:1.0;"/><polygon fill="#181818" points="391.18,339.37,390.6673,349.2055,392.9701,344.0386,398.137,346.3414,391.18,339.37" style="stroke:#181818;stroke-width:1.0;"/><polygon fill="#181818" points="413.84,398.45,414.349,388.6143,412.0481,393.7821,406.8803,391.4813,413.84,398.45" style="stroke:#181818;stroke-width:1.0;"/></g><!--link WebRTC to GAIA--><g id="link_WebRTC_GAIA"><path d="M380.0492,448.7805 C351.1992,466.2705 321.7106,484.1592 292.8806,501.6392 " fill="none" id="WebRTC-GAIA" style="stroke:#181818;stroke-width:1.0;"/><polygon fill="#181818" points="385.18,445.67,375.4102,446.9152,380.9043,448.2621,379.5575,453.7562,385.18,445.67" style="stroke:#181818;stroke-width:1.0;"/><polygon fill="#181818" points="287.75,504.75,297.5198,503.5043,292.0255,502.1577,293.3721,496.6635,287.75,504.75" style="stroke:#181818;stroke-width:1.0;"/></g><!--link GAIA to DS--><g id="link_GAIA_DS"><path d="M270.68,551.86 C286.39,569.39 304.0671,589.1104 319.6771,606.5404 " fill="none" id="GAIA-to-DS" style="stroke:#181818;stroke-width:1.0;"/><polygon fill="#181818" points="323.68,611.01,320.6554,601.6371,320.3443,607.2854,314.696,606.9742,323.68,611.01" style="stroke:#181818;stroke-width:1.0;"/></g><!--link VS to GAIA--><g id="link_VS_GAIA"><path d="M157.4965,343.2283 C130.2665,368.9283 99.03,408.2 119.5,445.19 C134.51,472.32 157.2661,489.0214 183.6261,502.1114 " fill="none" id="VS-GAIA" style="stroke:#181818;stroke-width:1.0;"/><polygon fill="#181818" points="161.86,339.11,152.5693,342.3785,158.2238,342.5419,158.0603,348.1964,161.86,339.11" style="stroke:#181818;stroke-width:1.0;"/><polygon fill="#181818" points="189,504.78,182.7182,497.1945,184.5218,502.5562,179.1601,504.3597,189,504.78" style="stroke:#181818;stroke-width:1.0;"/></g><!--link VS to PS--><g id="link_VS_PS"><path d="M185.7577,345.3426 C184.0577,363.0826 182.8521,375.6573 181.1721,393.1973 " fill="none" id="VS-PS" style="stroke:#181818;stroke-width:1.0;"/><polygon fill="#181818" points="186.33,339.37,181.4897,347.9474,185.853,344.3472,189.4532,348.7105,186.33,339.37" style="stroke:#181818;stroke-width:1.0;"/><polygon fill="#181818" points="180.6,399.17,185.4399,390.5924,181.0767,394.1928,177.4763,389.8296,180.6,399.17" style="stroke:#181818;stroke-width:1.0;"/></g><!--link PS to GAIA--><g id="link_PS_GAIA"><path d="M197.1794,450.0972 C209.3194,467.6772 219.4029,482.2812 231.5929,499.9512 " fill="none" id="PS-GAIA" style="stroke:#181818;stroke-width:1.0;"/><polygon fill="#181818" points="193.77,445.16,195.5927,454.8387,196.6112,449.2743,202.1756,450.2928,193.77,445.16" style="stroke:#181818;stroke-width:1.0;"/><polygon fill="#181818" points="235,504.89,233.1818,495.2104,232.1607,500.7743,226.5968,499.7532,235,504.89" style="stroke:#181818;stroke-width:1.0;"/></g><!--SRC=[LL11JiCm4Bpx5QiS44IgL77WX91CWo27GeLBUq0zkCag188JULqkYB_qBNqPQyTjaulbsPsPtLbTkDOUzic3AISxGfiSzfeEUuOU2V7-r3PjPVKtpB6iDPCte0bcKWYBXTEcQX2I4scjcmOTN32R24t5Xfukkmv-1S3PJNVTfXyrb-9FZDpUJ5ta6UH4ExIGBLKIn2o_djvCGQ7zgGi4MQ5nqMIb0g7KJcyriKTWPWn1ySuOOsLguBF6xUjo5kpG1fzO6bijMdALHV8v5b4_tl1U5rzeIhXCK_TH4tIs_UGqQNeLRlKeSzdBLZNLhJa6eD1TvIf_UVOdy4UwdKpku7ZykGGFEHl_kEElFkj_VSrtuygzJQyF0sF1OquzR4T5Z7zM-EV4LqEh23ZzOb3_1m00]--></g></svg>