<svg xmlns="http://www.w3.org/2000/svg" xmlns:xlink="http://www.w3.org/1999/xlink" contentStyleType="text/css" height="931px" preserveAspectRatio="none" style="width:1093px;height:931px;background:#FFFFFF;" version="1.1" viewBox="0 0 1093 931" width="1093px" zoomAndPan="magnify"><defs/><g><text fill="#000000" font-family="sans-serif" font-size="14" font-weight="bold" lengthAdjust="spacing" textLength="122" x="487" y="27.9951">ID Card reading</text><rect fill="none" height="262.1953" style="stroke:#000000;stroke-width:1.5;" width="1077" x="10" y="452.9219"/><rect fill="none" height="104.5313" style="stroke:#000000;stroke-width:1.5;" width="1004" x="10" y="729.1172"/><line style="stroke:#181818;stroke-width:0.5;stroke-dasharray:5.0,5.0;" x1="39" x2="39" y1="118.5938" y2="417.9219"/><line style="stroke:#A80036;stroke-width:1.0;stroke-dasharray:1.0,4.0;" x1="39" x2="39" y1="417.9219" y2="445.9219"/><line style="stroke:#181818;stroke-width:0.5;stroke-dasharray:5.0,5.0;" x1="39" x2="39" y1="445.9219" y2="850.6484"/><line style="stroke:#181818;stroke-width:0.5;stroke-dasharray:5.0,5.0;" x1="342" x2="342" y1="118.5938" y2="417.9219"/><line style="stroke:#A80036;stroke-width:1.0;stroke-dasharray:1.0,4.0;" x1="342" x2="342" y1="417.9219" y2="445.9219"/><line style="stroke:#181818;stroke-width:0.5;stroke-dasharray:5.0,5.0;" x1="342" x2="342" y1="445.9219" y2="850.6484"/><line style="stroke:#181818;stroke-width:0.5;stroke-dasharray:5.0,5.0;" x1="696.5" x2="696.5" y1="118.5938" y2="417.9219"/><line style="stroke:#A80036;stroke-width:1.0;stroke-dasharray:1.0,4.0;" x1="696.5" x2="696.5" y1="417.9219" y2="445.9219"/><line style="stroke:#181818;stroke-width:0.5;stroke-dasharray:5.0,5.0;" x1="696.5" x2="696.5" y1="445.9219" y2="850.6484"/><line style="stroke:#181818;stroke-width:0.5;stroke-dasharray:5.0,5.0;" x1="920" x2="920" y1="118.5938" y2="417.9219"/><line style="stroke:#A80036;stroke-width:1.0;stroke-dasharray:1.0,4.0;" x1="920" x2="920" y1="417.9219" y2="445.9219"/><line style="stroke:#181818;stroke-width:0.5;stroke-dasharray:5.0,5.0;" x1="920" x2="920" y1="445.9219" y2="850.6484"/><text fill="#000000" font-family="sans-serif" font-size="14" lengthAdjust="spacing" textLength="32" x="20" y="115.292">User</text><ellipse cx="39" cy="50.7969" fill="#E2E2F0" rx="8" ry="8" style="stroke:#181818;stroke-width:0.5;"/><path d="M39,58.7969 L39,85.7969 M26,66.7969 L52,66.7969 M39,85.7969 L26,100.7969 M39,85.7969 L52,100.7969 " fill="none" style="stroke:#181818;stroke-width:0.5;"/><text fill="#000000" font-family="sans-serif" font-size="14" lengthAdjust="spacing" textLength="32" x="20" y="862.6436">User</text><ellipse cx="39" cy="874.4453" fill="#E2E2F0" rx="8" ry="8" style="stroke:#181818;stroke-width:0.5;"/><path d="M39,882.4453 L39,909.4453 M26,890.4453 L52,890.4453 M39,909.4453 L26,924.4453 M39,909.4453 L52,924.4453 " fill="none" style="stroke:#181818;stroke-width:0.5;"/><rect fill="#E2E2F0" height="30.2969" rx="2.5" ry="2.5" style="stroke:#181818;stroke-width:0.5;" width="80" x="302" y="87.2969"/><text fill="#000000" font-family="sans-serif" font-size="14" lengthAdjust="spacing" textLength="66" x="309" y="107.292">Hologram</text><rect fill="#E2E2F0" height="30.2969" rx="2.5" ry="2.5" style="stroke:#181818;stroke-width:0.5;" width="80" x="302" y="849.6484"/><text fill="#000000" font-family="sans-serif" font-size="14" lengthAdjust="spacing" textLength="66" x="309" y="869.6436">Hologram</text><rect fill="#E2E2F0" height="30.2969" rx="2.5" ry="2.5" style="stroke:#181818;stroke-width:0.5;" width="105" x="644.5" y="87.2969"/><text fill="#000000" font-family="sans-serif" font-size="14" lengthAdjust="spacing" textLength="91" x="651.5" y="107.292">ServiceAgent</text><rect fill="#E2E2F0" height="30.2969" rx="2.5" ry="2.5" style="stroke:#181818;stroke-width:0.5;" width="105" x="644.5" y="849.6484"/><text fill="#000000" font-family="sans-serif" font-size="14" lengthAdjust="spacing" textLength="91" x="651.5" y="869.6436">ServiceAgent</text><rect fill="#E2E2F0" height="30.2969" rx="2.5" ry="2.5" style="stroke:#181818;stroke-width:0.5;" width="168" x="836" y="87.2969"/><text fill="#000000" font-family="sans-serif" font-size="14" lengthAdjust="spacing" textLength="154" x="843" y="107.292">UnicID Issuer backend</text><rect fill="#E2E2F0" height="30.2969" rx="2.5" ry="2.5" style="stroke:#181818;stroke-width:0.5;" width="168" x="836" y="849.6484"/><text fill="#000000" font-family="sans-serif" font-size="14" lengthAdjust="spacing" textLength="154" x="843" y="869.6436">UnicID Issuer backend</text><polygon fill="#181818" points="708,145.7266,698,149.7266,708,153.7266,704,149.7266" style="stroke:#181818;stroke-width:1.0;"/><line style="stroke:#181818;stroke-width:1.0;" x1="702" x2="919" y1="149.7266" y2="149.7266"/><text fill="#000000" font-family="sans-serif" font-size="13" lengthAdjust="spacing" textLength="65" x="714" y="144.6606">Read MRZ</text><polygon fill="#181818" points="353,174.8594,343,178.8594,353,182.8594,349,178.8594" style="stroke:#181818;stroke-width:1.0;"/><line style="stroke:#181818;stroke-width:1.0;" x1="347" x2="696" y1="178.8594" y2="178.8594"/><text fill="#000000" font-family="sans-serif" font-size="13" lengthAdjust="spacing" textLength="149" x="359" y="173.7935">DIDComm mrz-request</text><polygon fill="#181818" points="50,219.125,40,223.125,50,227.125,46,223.125" style="stroke:#181818;stroke-width:1.0;"/><line style="stroke:#181818;stroke-width:1.0;" x1="44" x2="341" y1="223.125" y2="223.125"/><text fill="#000000" font-family="sans-serif" font-size="13" lengthAdjust="spacing" textLength="67" x="56" y="202.9263">Chat Entry</text><text fill="#000000" font-family="sans-serif" font-size="13" lengthAdjust="spacing" textLength="95" x="56" y="218.0591">"MRZ Request"</text><polygon fill="#181818" points="330,248.2578,340,252.2578,330,256.2578,334,252.2578" style="stroke:#181818;stroke-width:1.0;"/><line style="stroke:#181818;stroke-width:1.0;" x1="39" x2="336" y1="252.2578" y2="252.2578"/><text fill="#000000" font-family="sans-serif" font-size="13" lengthAdjust="spacing" textLength="44" x="46" y="247.1919">Accept</text><line style="stroke:#181818;stroke-width:1.0;" x1="342" x2="384" y1="281.3906" y2="281.3906"/><line style="stroke:#181818;stroke-width:1.0;" x1="384" x2="384" y1="281.3906" y2="294.3906"/><line style="stroke:#181818;stroke-width:1.0;" x1="343" x2="384" y1="294.3906" y2="294.3906"/><polygon fill="#181818" points="353,290.3906,343,294.3906,353,298.3906,349,294.3906" style="stroke:#181818;stroke-width:1.0;"/><text fill="#000000" font-family="sans-serif" font-size="13" lengthAdjust="spacing" textLength="65" x="349" y="276.3247">Scan MRZ</text><polygon fill="#181818" points="685,319.5234,695,323.5234,685,327.5234,689,323.5234" style="stroke:#181818;stroke-width:1.0;"/><line style="stroke:#181818;stroke-width:1.0;" x1="342" x2="691" y1="323.5234" y2="323.5234"/><text fill="#000000" font-family="sans-serif" font-size="13" lengthAdjust="spacing" textLength="95" x="349" y="318.4575">DIDComm mrz</text><polygon fill="#181818" points="908,348.6563,918,352.6563,908,356.6563,912,352.6563" style="stroke:#181818;stroke-width:1.0;"/><line style="stroke:#181818;stroke-width:1.0;" x1="697" x2="914" y1="352.6563" y2="352.6563"/><text fill="#000000" font-family="sans-serif" font-size="13" lengthAdjust="spacing" textLength="77" x="704" y="347.5903">Parsed MRZ</text><line style="stroke:#181818;stroke-width:1.0;" x1="920" x2="962" y1="396.9219" y2="396.9219"/><line style="stroke:#181818;stroke-width:1.0;" x1="962" x2="962" y1="396.9219" y2="409.9219"/><line style="stroke:#181818;stroke-width:1.0;" x1="921" x2="962" y1="409.9219" y2="409.9219"/><polygon fill="#181818" points="931,405.9219,921,409.9219,931,413.9219,927,409.9219" style="stroke:#181818;stroke-width:1.0;"/><text fill="#000000" font-family="sans-serif" font-size="13" lengthAdjust="spacing" textLength="119" x="927" y="376.7231">Check if document</text><text fill="#000000" font-family="sans-serif" font-size="13" lengthAdjust="spacing" textLength="79" x="927" y="391.856">is supported</text><path d="M10,452.9219 L74,452.9219 L74,460.0547 L64,470.0547 L10,470.0547 L10,452.9219 " fill="#EEEEEE" style="stroke:#000000;stroke-width:1.5;"/><rect fill="none" height="262.1953" style="stroke:#000000;stroke-width:1.5;" width="1077" x="10" y="452.9219"/><text fill="#000000" font-family="sans-serif" font-size="13" font-weight="bold" lengthAdjust="spacing" textLength="19" x="25" y="465.9888">alt</text><text fill="#000000" font-family="sans-serif" font-size="11" font-weight="bold" lengthAdjust="spacing" textLength="143" x="89" y="465.1323">[Supported document]</text><polygon fill="#181818" points="708,487.1875,698,491.1875,708,495.1875,704,491.1875" style="stroke:#181818;stroke-width:1.0;"/><line style="stroke:#181818;stroke-width:1.0;" x1="702" x2="919" y1="491.1875" y2="491.1875"/><text fill="#000000" font-family="sans-serif" font-size="13" lengthAdjust="spacing" textLength="102" x="714" y="486.1216">Read NFC MRTD</text><polygon fill="#181818" points="353,516.3203,343,520.3203,353,524.3203,349,520.3203" style="stroke:#181818;stroke-width:1.0;"/><line style="stroke:#181818;stroke-width:1.0;" x1="347" x2="696" y1="520.3203" y2="520.3203"/><text fill="#000000" font-family="sans-serif" font-size="13" lengthAdjust="spacing" textLength="119" x="359" y="515.2544">mrtd-data-request</text><polygon fill="#181818" points="50,560.5859,40,564.5859,50,568.5859,46,564.5859" style="stroke:#181818;stroke-width:1.0;"/><line style="stroke:#181818;stroke-width:1.0;" x1="44" x2="341" y1="564.5859" y2="564.5859"/><text fill="#000000" font-family="sans-serif" font-size="13" lengthAdjust="spacing" textLength="67" x="56" y="544.3872">Chat Entry</text><text fill="#000000" font-family="sans-serif" font-size="13" lengthAdjust="spacing" textLength="123" x="60" y="559.52">"NFC scan request"</text><polygon fill="#181818" points="330,589.7188,340,593.7188,330,597.7188,334,593.7188" style="stroke:#181818;stroke-width:1.0;"/><line style="stroke:#181818;stroke-width:1.0;" x1="39" x2="336" y1="593.7188" y2="593.7188"/><text fill="#000000" font-family="sans-serif" font-size="13" lengthAdjust="spacing" textLength="44" x="46" y="588.6528">Accept</text><line style="stroke:#181818;stroke-width:1.0;" x1="342" x2="384" y1="622.8516" y2="622.8516"/><line style="stroke:#181818;stroke-width:1.0;" x1="384" x2="384" y1="622.8516" y2="635.8516"/><line style="stroke:#181818;stroke-width:1.0;" x1="343" x2="384" y1="635.8516" y2="635.8516"/><polygon fill="#181818" points="353,631.8516,343,635.8516,353,639.8516,349,635.8516" style="stroke:#181818;stroke-width:1.0;"/><text fill="#000000" font-family="sans-serif" font-size="13" lengthAdjust="spacing" textLength="133" x="349" y="617.7856">Scan NFC Document</text><polygon fill="#181818" points="685,660.9844,695,664.9844,685,668.9844,689,664.9844" style="stroke:#181818;stroke-width:1.0;"/><line style="stroke:#181818;stroke-width:1.0;" x1="342" x2="691" y1="664.9844" y2="664.9844"/><text fill="#000000" font-family="sans-serif" font-size="13" lengthAdjust="spacing" textLength="135" x="349" y="659.9185">DIDComm mrtd-data</text><line style="stroke:#181818;stroke-width:1.0;" x1="920" x2="962" y1="694.1172" y2="694.1172"/><line style="stroke:#181818;stroke-width:1.0;" x1="962" x2="962" y1="694.1172" y2="707.1172"/><line style="stroke:#181818;stroke-width:1.0;" x1="921" x2="962" y1="707.1172" y2="707.1172"/><polygon fill="#181818" points="931,703.1172,921,707.1172,931,711.1172,927,707.1172" style="stroke:#181818;stroke-width:1.0;"/><text fill="#000000" font-family="sans-serif" font-size="13" lengthAdjust="spacing" textLength="148" x="927" y="689.0513">Verify data authenticity</text><path d="M10,729.1172 L74,729.1172 L74,736.25 L64,746.25 L10,746.25 L10,729.1172 " fill="#EEEEEE" style="stroke:#000000;stroke-width:1.5;"/><rect fill="none" height="104.5313" style="stroke:#000000;stroke-width:1.5;" width="1004" x="10" y="729.1172"/><text fill="#000000" font-family="sans-serif" font-size="13" font-weight="bold" lengthAdjust="spacing" textLength="19" x="25" y="742.1841">alt</text><text fill="#000000" font-family="sans-serif" font-size="11" font-weight="bold" lengthAdjust="spacing" textLength="159" x="89" y="741.3276">[Unsupported document]</text><polygon fill="#181818" points="708,763.3828,698,767.3828,708,771.3828,704,767.3828" style="stroke:#181818;stroke-width:1.0;"/><line style="stroke:#181818;stroke-width:1.0;" x1="702" x2="919" y1="767.3828" y2="767.3828"/><text fill="#000000" font-family="sans-serif" font-size="13" lengthAdjust="spacing" textLength="199" x="714" y="762.3169">Text("Unsupported document")</text><polygon fill="#181818" points="353,792.5156,343,796.5156,353,800.5156,349,796.5156" style="stroke:#181818;stroke-width:1.0;"/><line style="stroke:#181818;stroke-width:1.0;" x1="347" x2="696" y1="796.5156" y2="796.5156"/><text fill="#000000" font-family="sans-serif" font-size="13" lengthAdjust="spacing" textLength="331" x="359" y="791.4497">DIDComm Basic Message "Unsupported document"</text><polygon fill="#181818" points="50,821.6484,40,825.6484,50,829.6484,46,825.6484" style="stroke:#181818;stroke-width:1.0;"/><line style="stroke:#181818;stroke-width:1.0;" x1="44" x2="341" y1="825.6484" y2="825.6484"/><text fill="#000000" font-family="sans-serif" font-size="13" lengthAdjust="spacing" textLength="279" x="56" y="820.5825">Chat Entry "Text" "Unsupported document!"</text><!--SRC=[fLBBJiCm4BpxAnQVuD1yG0v8RGAYXoBK1mVKo-9iKwkD4zOEedmzTjkKH4IbYElExEpCQ9rsMu9n2Wbo1aoOQPCBLAvaM5XYKI4xhNI5ni53kIrpng8pd16_QqN3d8ph02DK6p8Pe0MvC5hv8sDhQs9uFI1IY8OpkEten33rJc0oVH7jSQ0r7c98nsbI5WKK_3bWUgl9Ej6WWHdinv2iqS6TSRo3fP5UqKllkL84GbTog1HLNPLlSARGx2sruQxhbgKVnezHOtX2jdG8ruf_WfCrgGte5MIbgekml3JQWgshgcH7cOYYIE3M5zzCJinVwdoyJ_pLUNgcqu9TDiZGuKMDBWt886f3C_oVMeDAsgIufD-ZpTu6dudrQWS11wpTsg_wdtGxuT5zSmjZ_z3Td3xSjUpRaJSNlES8hLOm8Min9-ZNEV-tCZYG_QjNCgJw0W00]--></g></svg>